<?xml  version="1.0" encoding="UTF-8"?>
<!DOCTYPE svg PUBLIC "-//W3C//DTD SVG 1.0//EN" "http://www.w3.org/TR/2001/REC-SVG-20010904/DTD/svg10.dtd" >
<svg xmlns="http://www.w3.org/2000/svg" >
<metadata>
<version>1.0</version>
<id><![CDATA[Proxima N W01 At Reg]]></id>
<vendor>Monotype Imaging Inc.</vendor>
<credits>
<name>Fonts.com WebFonts</name>
<URL>http://webfonts.fonts.com</URL>
<role>Home of the Web fonts</role>
</credits>
<license>
<URL>http://webfonts.fonts.com/Legal</URL>
</license>
<copyright><![CDATA[Copyright (c) Mark Simonson, 2005. All rights reserved.]]></copyright>
<trademark><![CDATA[Proxima Nova is a trademark of Mark Simonson.]]></trademark>
<licensee>
<name></name>
</licensee>
</metadata>
<defs >
<font horiz-adv-x="512" id="c7536b52-8fbc-472d-8d8a-335dae2980df">
<font-face font-family="" panose-1="2 0 5 6 3 0 0 2 0 4" ascent="741" descent="-259" units-per-em="1000" alphabetic="0">
</font-face>
<missing-glyph horiz-adv-x="0" />

<glyph unicode="&#xA;" />
<glyph unicode="&#xD;" horiz-adv-x="0" />
<glyph unicode=" " horiz-adv-x="259" />
<glyph unicode="!" horiz-adv-x="230" d="M84 187L68 667H162L146 187H84ZM115 -10Q92 -10 76 6T60 45Q60 68 76 84T115 100Q138 100 154 84T170 45Q170 23 154 7T115 -10Z"  />
<glyph unicode="&quot;" horiz-adv-x="344" d="M81 412Q73 469 67 516Q64 536 62 555T58 591T55 617T54 631Q54 650 67 663T99 677Q119 677 132 664T145 631Q145 628 144 618T141 591T137 556T131 516Q125 469 118 412H81ZM226 412Q218 469 212 516Q209 536 207 555T203 591T200 617T199 631Q199 650 212 663T245 677Q264 677 277 664T290 631Q290 628 289 618T286 591T282 556T276 516Q270 469 263 412H226Z"  />
<glyph unicode="#" horiz-adv-x="591" d="M239 0L300 181H189L129 0H67L128 181H22L39 234H146L212 433H104L120 485H230L290 667H352L292 485H402L462 667H523L462 485H569L554 433H445L378 234H489L473 181H360L300 0H239ZM384 433H274L207 234H317L384 433Z"  />
<glyph unicode="$" horiz-adv-x="593" d="M271 -11Q195 -6 138 22T43 94L93 158Q122 124 166 98T271 64V307Q233 317 196 330T129 363T82 415T64 492Q64 531 79 563T122 620T188 659T271 677V768H332V676Q395 671 444 647T530 584L480 523Q450 556 412 575T332 600V382Q371 371 409 357T477 321T526 266T545 184Q545 150 534 117T497 57T431 12T332 -11V-100H271V-11ZM459 178Q459 202 449 220T422 251T381 273T332 291V63Q368 67 392 78T431 106T452 141T459 178ZM150 497Q150 476 159 461T185 435T223 414T271 398V602Q217 598 184 570T150 497Z"  />
<glyph unicode="%" horiz-adv-x="732" d="M192 348Q156 348 127 360T76 395T43 446T31 511Q31 547 43 577T76 629T126 664T192 677Q228 677 257 665T308 630T341 577T353 511Q353 476 342 447T309 395T258 361T192 348ZM128 0L554 667H610L183 0H128ZM540 -12Q504 -12 475 0T424 35T391 87T379 152Q379 187 391 217T424 269T474 304T540 317Q576 317 605 305T656 270T688 217T700 152Q700 117 689 87T656 35T606 1T540 -12ZM192 399Q214 399 233 407T265 431T285 466T293 511Q293 561 265 593T192 626Q147 626 119 594T91 511Q91 463 119 431T192 399ZM540 39Q585 39 613 71T641 152Q641 201 613 233T540 266Q494 266 466 234T438 152Q438 104 466 72T540 39Z"  />
<glyph unicode="&amp;" horiz-adv-x="642" d="M509 0Q494 13 475 31T436 70Q399 33 352 11T244 -12Q201 -12 164 0T98 35T54 93T37 174Q37 213 49 243T81 296T128 338T184 373Q161 411 147 449T133 523Q133 556 146 584T181 633T234 665T301 677Q333 677 360 669T408 643T439 602T451 546Q451 508 437 481T398 431T344 392T281 358Q301 331 321 307T359 263Q379 239 398 217T438 174Q465 216 483 257T510 327L574 298Q557 258 535 213T483 126Q513 95 544 65T613 0H509ZM252 50Q294 50 328 68T391 116Q362 146 338 173T299 217Q278 241 257 267T216 323Q174 297 146 264T117 179Q117 148 128 124T158 84T201 59T252 50ZM210 521Q210 495 221 465T250 406Q277 419 301 432T343 462T371 498T382 543Q382 580 360 599T303 619Q284 619 267 612T238 592T218 561T210 521Z"  />
<glyph unicode="&apos;" horiz-adv-x="199" d="M81 412Q73 469 67 516Q64 536 62 555T58 591T55 617T54 631Q54 650 67 663T99 677Q119 677 132 664T145 631Q145 628 144 618T141 591T137 556T131 516Q125 469 118 412H81Z"  />
<glyph unicode="(" horiz-adv-x="248" d="M185 -199Q117 -105 81 8T44 243Q44 364 80 477T185 685L231 651Q207 603 188 557T155 462T134 360T126 243Q126 181 133 127T154 25T187 -70T231 -164L185 -199Z"  />
<glyph unicode=")" horiz-adv-x="248" d="M17 -164Q41 -117 60 -71T93 24T114 127T122 243Q122 306 115 359T94 462T61 557T17 651L63 685Q131 591 167 478T204 243Q204 122 168 9T63 -199L17 -164Z"  />
<glyph unicode="*" horiz-adv-x="340" d="M147 389L153 504L56 442L34 481L136 533L34 585L56 625L153 562L147 677H193L187 562L283 625L306 585L204 533L306 481L283 442L187 504L193 389H147Z"  />
<glyph unicode="+" horiz-adv-x="499" d="M278 311V98H221V311H29V363H221V570H278V363H470V311H278Z"  />
<glyph unicode="&#x2c;" horiz-adv-x="230" d="M176 24Q176 -22 153 -62T95 -127L57 -96Q81 -80 100 -54T122 -3Q118 -5 108 -5Q88 -5 74 9T60 46Q60 68 75 84T113 100Q139 100 157 80T176 24Z"  />
<glyph unicode="-" horiz-adv-x="300" d="M30 209V275H270V209H30Z"  />
<glyph unicode="." horiz-adv-x="231" d="M115 -10Q92 -10 76 6T60 45Q60 68 76 84T115 100Q138 100 154 84T170 45Q170 22 154 6T115 -10Z"  />
<glyph unicode="/" horiz-adv-x="296" d="M0 -20L237 687H296L59 -20H0Z"  />
<glyph unicode="0" horiz-adv-x="612" d="M306 -12Q237 -12 189 19T110 99T65 210T51 333Q51 394 65 455T110 566T189 646T306 677Q374 677 422 646T501 566T546 456T561 333Q561 272 547 211T502 100T423 19T306 -12ZM306 62Q354 62 386 85T439 147T467 234T476 333Q476 383 468 431T439 518T387 579T306 603Q258 603 226 580T173 518T145 432T136 333Q136 283 144 235T173 148T225 86T306 62Z"  />
<glyph unicode="1" horiz-adv-x="339" d="M178 0V558L71 444L21 495L188 667H261V0H178Z"  />
<glyph unicode="2" horiz-adv-x="588" d="M54 0V67Q144 137 213 194T329 301T401 394T425 481Q425 513 413 536T381 574T336 596T285 603Q225 603 179 580T104 519L53 572Q91 623 152 650T285 677Q327 677 367 665T438 629T489 568T509 481Q509 430 485 381T417 282T314 181T185 74H512V0H54Z"  />
<glyph unicode="3" horiz-adv-x="557" d="M266 -12Q181 -12 121 20T29 98L78 150Q107 111 155 87T264 62Q337 62 378 96T420 187Q420 218 408 240T374 277T322 298T254 305Q233 305 213 305T185 304V380Q193 379 213 379T254 379Q285 379 313 385T363 405T396 439T409 489Q409 517 397 538T365 573T318 595T260 603Q205 603 163 583T84 522L38 574Q74 619 131 648T267 677Q315 677 356 665T427 631T475 575T492 500Q492 464 479 437T444 390T398 360T349 345Q371 343 398 332T448 301T487 250T503 180Q503 138 487 103T440 43T365 3T266 -12Z"  />
<glyph unicode="4" horiz-adv-x="558" d="M349 0V169H32V238L318 667H432V242H526V169H432V0H349ZM349 590L115 242H349V590Z"  />
<glyph unicode="5" horiz-adv-x="590" d="M301 -12Q216 -12 160 16T66 95L117 151Q150 108 195 85T301 62Q335 62 363 73T412 103T443 148T455 205Q455 238 444 264T412 310T364 339T302 349Q258 349 220 334T148 287L87 308V667H495V593H170V361Q195 385 235 403T326 421Q368 421 406 407T474 366T521 300T539 208Q539 157 521 117T470 48T395 4T301 -12Z"  />
<glyph unicode="6" horiz-adv-x="591" d="M309 -12Q239 -12 190 16T110 92T65 202T51 333Q51 400 67 462T116 572T201 648T323 677Q387 677 431 655T507 597L465 535Q439 565 407 584T323 603Q274 603 239 581T180 521T146 437T135 341V315Q146 332 164 350T208 384T262 409T324 419Q369 419 408 406T478 366T525 299T542 206Q542 163 526 124T480 54T407 6T309 -12ZM305 62Q344 62 372 75T420 108T448 154T458 203Q458 240 446 267T414 312T365 338T305 347Q254 347 210 320T138 248Q141 217 151 184T180 124T230 80T305 62Z"  />
<glyph unicode="7" horiz-adv-x="515" d="M121 0L390 593H31V667H486V610L213 0H121Z"  />
<glyph unicode="8" horiz-adv-x="582" d="M291 -12Q241 -12 198 0T122 35T71 92T52 169Q52 202 65 230T100 280T151 319T211 344Q182 352 156 366T109 399T76 445T63 504Q63 549 83 581T135 635T208 667T291 677Q332 677 373 667T446 636T499 582T520 504Q520 471 508 445T475 400T427 366T371 344Q402 335 431 319T482 281T517 230T530 169Q530 127 511 93T460 36T384 1T291 -12ZM291 378Q306 381 331 387T379 407T419 442T436 493Q436 519 425 539T394 574T348 595T291 603Q261 603 235 596T189 574T158 540T147 493Q147 463 164 442T204 408T251 388T291 378ZM291 62Q322 62 350 70T399 93T433 129T446 178Q446 211 428 234T384 273T333 297T291 307Q276 305 250 297T198 274T155 235T136 178Q136 151 148 130T182 93T232 70T291 62Z"  />
<glyph unicode="9" horiz-adv-x="591" d="M269 -11Q205 -11 161 11T84 69L126 131Q152 101 184 82T269 63Q320 63 355 86T413 146T446 230T457 325Q457 331 457 337T456 351Q445 334 427 316T383 282T329 257T268 247Q223 247 183 260T114 300T67 367T49 460Q49 503 65 542T111 612T184 660T283 678Q353 678 402 650T482 574T527 464T541 333Q541 265 525 203T476 94T391 18T269 -11ZM287 319Q337 319 382 346T454 419Q451 450 441 482T411 542T360 586T286 604Q248 604 219 591T171 558T143 512T133 463Q133 426 145 399T178 354T227 328T287 319Z"  />
<glyph unicode=":" horiz-adv-x="225" d="M115 380Q92 380 76 396T60 435Q60 458 76 474T115 490Q138 490 154 474T170 435Q170 413 154 397T115 380ZM115 -10Q92 -10 76 6T60 45Q60 68 76 84T115 100Q138 100 154 84T170 45Q170 22 154 6T115 -10Z"  />
<glyph unicode=";" horiz-adv-x="230" d="M115 380Q92 380 76 396T60 435Q60 458 76 474T115 490Q138 490 154 474T170 435Q170 413 154 397T115 380ZM176 26Q176 -21 153 -60T95 -125L57 -95Q81 -79 100 -53T122 -1Q118 -3 108 -3Q88 -3 74 11T60 48Q60 70 75 86T113 102Q139 102 157 82T176 26Z"  />
<glyph unicode="&lt;" horiz-adv-x="499" d="M29 308V361L470 580V517L93 334L470 153V90L29 308Z"  />
<glyph unicode="=" horiz-adv-x="499" d="M29 404V457H470V404H29ZM29 211V264H470V211H29Z"  />
<glyph unicode="&gt;" horiz-adv-x="499" d="M29 90V153L406 334L29 517V580L470 361V308L29 90Z"  />
<glyph unicode="?" horiz-adv-x="462" d="M203 185Q183 202 174 223T165 267Q165 299 178 322T212 363T255 396T298 428T331 464T345 510Q345 548 316 575T228 603Q171 603 134 581T68 521L18 575Q54 623 108 650T235 677Q281 677 317 665T378 632T417 583T431 522Q431 484 417 457T381 409T335 371T288 338T253 303T238 260Q238 248 244 235T264 212L203 185ZM224 -10Q201 -10 185 6T169 45Q169 68 185 84T224 100Q247 100 263 84T279 45Q279 22 263 6T224 -10Z"  />
<glyph unicode="@" horiz-adv-x="783" d="M352 -70Q284 -70 226 -46T126 20T59 120T35 244Q35 325 68 396T155 522T282 607T432 638Q503 638 561 613T660 545T724 445T747 321Q747 262 732 218T692 145T636 100T574 85Q532 85 509 109T483 166V173Q457 135 415 110T324 85Q254 85 213 130T171 248Q171 300 191 346T244 426T319 479T406 499Q455 499 487 476T534 421L547 483H615L558 212Q557 207 557 202T556 191Q556 166 569 153T603 139Q618 139 636 148T672 178T700 234T712 321Q712 382 692 434T634 524T545 583T429 604Q356 604 291 575T177 496T99 381T70 246Q70 186 91 135T151 45T241 -15T356 -37Q410 -37 455 -22T542 19L560 -7Q513 -37 461 -53T352 -70ZM345 141Q370 141 392 149T433 170T467 199T493 231L522 370Q518 382 510 394T489 418T459 436T419 443Q381 443 349 427T294 384T257 323T243 252Q243 204 269 173T345 141Z"  />
<glyph unicode="A" horiz-adv-x="658" d="M554 0L495 149H163L104 0H9L278 667H381L649 0H554ZM329 582L188 222H471L329 582Z"  />
<glyph unicode="B" horiz-adv-x="629" d="M78 0V667H375Q418 667 453 655T512 620T549 566T562 497Q562 465 553 439T527 394T489 362T445 344Q472 340 495 325T536 288T564 238T575 180Q575 140 562 107T524 50T464 13T382 0H78ZM361 378Q418 378 447 408T476 485Q476 530 447 561T361 593H161V378H361ZM366 74Q424 74 456 104T489 189Q489 212 481 233T458 269T419 294T366 304H161V74H366Z"  />
<glyph unicode="C" horiz-adv-x="676" d="M394 -12Q322 -12 260 13T151 83T78 192T51 333Q51 410 77 473T150 582T259 653T394 678Q483 678 545 641T647 546L578 507Q549 550 500 577T394 604Q339 604 292 584T211 529T157 443T137 333Q137 274 156 224T210 138T292 82T394 62Q451 62 500 89T578 159L648 121Q606 63 545 26T394 -12Z"  />
<glyph unicode="D" horiz-adv-x="700" d="M78 0V667H306Q384 667 447 642T555 571T624 465T648 333Q648 262 624 201T555 96T447 26T306 0H78ZM306 74Q367 74 414 94T495 150T545 232T562 333Q562 387 545 434T496 517T416 572T306 593H161V74H306Z"  />
<glyph unicode="E" horiz-adv-x="569" d="M78 0V667H515V593H161V378H508V304H161V74H515V0H78Z"  />
<glyph unicode="F" horiz-adv-x="551" d="M78 0V667H515V593H161V378H508V304H161V0H78Z"  />
<glyph unicode="G" horiz-adv-x="713" d="M388 -13Q319 -13 258 12T151 82T78 191T51 333Q51 411 78 474T151 583T260 653T394 678Q484 678 546 643T653 554L587 512Q555 553 505 578T394 604Q339 604 292 584T211 529T157 443T137 333Q137 274 156 224T210 138T292 82T394 62Q445 62 484 79T551 124T595 190T618 269H344V343H708Q708 265 687 200T626 87T525 13T388 -13Z"  />
<glyph unicode="H" horiz-adv-x="712" d="M551 0V306H161V0H78V667H161V380H551V667H634V0H551Z"  />
<glyph unicode="I" horiz-adv-x="239" d="M78 0V667H161V0H78Z"  />
<glyph unicode="J" horiz-adv-x="475" d="M185 -12Q132 -12 89 6T11 65L55 128Q76 102 106 82T180 62Q242 62 278 100T314 202V667H397V201Q397 147 381 107T336 41T269 1T185 -12Z"  />
<glyph unicode="K" horiz-adv-x="601" d="M481 0L228 300L161 224V0H78V667H161V323L456 667H560L282 351L585 0H481Z"  />
<glyph unicode="L" horiz-adv-x="493" d="M67 0V667H150V74H460V0H67Z"  />
<glyph unicode="M" horiz-adv-x="809" d="M648 0V561L422 0H388L161 561V0H78V667H197L405 153L612 667H731V0H648Z"  />
<glyph unicode="N" horiz-adv-x="708" d="M550 0L161 532V0H78V667H163L547 146V667H630V0H550Z"  />
<glyph unicode="O" horiz-adv-x="765" d="M382 -12Q308 -12 247 14T143 86T75 196T51 333Q51 407 75 470T142 579T247 652T382 678Q456 678 517 652T622 580T690 470T714 333Q714 259 690 196T622 87T517 14T382 -12ZM382 62Q438 62 483 82T561 139T610 225T628 333Q628 391 611 441T561 527T484 583T382 604Q326 604 281 584T203 527T154 441T137 333Q137 275 154 226T203 140T280 83T382 62Z"  />
<glyph unicode="P" horiz-adv-x="587" d="M78 0V667H346Q396 667 435 651T500 608T541 544T555 466Q555 425 541 389T501 325T435 281T346 265H161V0H78ZM336 339Q396 339 432 374T469 466Q469 523 433 558T336 593H161V339H336Z"  />
<glyph unicode="Q" horiz-adv-x="765" d="M382 -12Q308 -12 247 14T143 86T75 196T51 333Q51 407 75 470T142 579T247 652T382 678Q456 678 517 652T622 580T690 470T714 333Q714 258 690 196T622 86L685 19L628 -31L563 38Q525 14 480 1T382 -12ZM382 62Q453 62 509 96L414 199L472 248L566 146Q595 182 611 229T628 333Q628 391 611 441T561 527T484 583T382 604Q326 604 281 584T203 527T154 441T137 333Q137 275 154 226T203 140T280 83T382 62Z"  />
<glyph unicode="R" horiz-adv-x="609" d="M464 0L295 265H161V0H78V667H346Q392 667 430 653T497 613T540 549T556 466Q556 421 542 386T503 327T448 289T382 272L562 0H464ZM336 338Q396 338 433 373T470 466Q470 523 433 558T336 593H161V338H336Z"  />
<glyph unicode="S" horiz-adv-x="586" d="M294 -12Q207 -12 144 17T38 94L88 158Q104 139 125 122T173 92T231 70T297 62Q342 62 372 73T420 100T446 137T454 178Q454 210 437 231T393 266T330 290T257 310T184 333T121 366T76 417T59 492Q59 533 76 567T124 626T197 664T289 678Q365 678 424 654T525 584L475 523Q437 565 387 584T282 603Q222 603 184 574T145 497Q145 469 162 451T206 420T269 398T342 378T415 353T478 317T523 263T540 184Q540 148 527 113T485 50T408 5T294 -12Z"  />
<glyph unicode="T" horiz-adv-x="570" d="M243 0V593H32V667H538V593H326V0H243Z"  />
<glyph unicode="U" horiz-adv-x="701" d="M350 -12Q282 -12 232 7T147 62T95 147T78 259V667H162V261Q162 169 209 116T350 62Q443 62 491 115T539 261V667H623V260Q623 198 606 148T555 62T469 7T350 -12Z"  />
<glyph unicode="V" horiz-adv-x="658" d="M278 0L9 667H104L329 91L554 667H649L381 0H278Z"  />
<glyph unicode="W" horiz-adv-x="883" d="M588 0L441 538L294 0H204L14 667H106L254 111L407 667H476L629 111L776 667H869L678 0H588Z"  />
<glyph unicode="X" horiz-adv-x="652" d="M539 0L326 284L113 0H12L272 342L27 667H128L326 401L523 667H625L380 343L640 0H539Z"  />
<glyph unicode="Y" horiz-adv-x="626" d="M272 0V282L9 667H106L313 357L520 667H617L355 282V0H272Z"  />
<glyph unicode="Z" horiz-adv-x="585" d="M48 0V69L423 593H48V667H530V598L154 74H537V0H48Z"  />
<glyph unicode="[" horiz-adv-x="243" d="M40 -190V678H226V623H99V-135H226V-190H40Z"  />
<glyph unicode="\" horiz-adv-x="296" d="M0 687H59L296 -20H237L0 687Z"  />
<glyph unicode="]" horiz-adv-x="243" d="M17 -190V-135H145V623H17V678H204V-190H17Z"  />
<glyph unicode="^" horiz-adv-x="432" d="M351 333L216 612L81 333H19L188 667H245L413 333H351Z"  />
<glyph unicode="_" horiz-adv-x="564" d="M-3 -95V-40H567V-95H-3Z"  />
<glyph unicode="`" horiz-adv-x="226" d="M169 556L0 700H78L226 556H169Z"  />
<glyph unicode="a" horiz-adv-x="575" d="M425 0V72Q398 35 356 12T262 -12Q215 -12 176 5T108 55T63 135T47 241Q47 299 63 346T107 426T175 477T262 495Q311 495 353 473T425 410V483H500V0H425ZM281 55Q326 55 365 77T425 132V350Q405 382 366 405T281 428Q244 428 215 414T166 375T136 316T125 241Q125 201 135 167T166 108T215 69T281 55Z"  />
<glyph unicode="b" horiz-adv-x="575" d="M150 131Q160 115 175 102T210 78T250 61T295 55Q331 55 360 69T409 108T439 167T450 241Q450 281 440 315T409 375T360 414T295 428Q272 428 251 422T210 405T176 380T150 350V131ZM75 0V667H150V410Q179 450 221 472T313 495Q361 495 400 477T468 426T512 346T528 241Q528 182 512 135T468 56T400 6T313 -12Q262 -12 220 11T150 72V0H75Z"  />
<glyph unicode="c" horiz-adv-x="496" d="M288 -12Q234 -12 190 7T114 61T65 142T47 242Q47 296 64 342T113 422T189 475T288 495Q354 495 395 471T465 411L415 366Q391 399 361 413T292 428Q254 428 223 414T170 375T137 316T125 242Q125 202 136 168T170 108T223 69T292 55Q368 55 415 118L465 72Q437 36 396 12T288 -12Z"  />
<glyph unicode="d" horiz-adv-x="575" d="M425 0V72Q398 35 356 12T262 -12Q215 -12 176 5T108 55T63 135T47 241Q47 299 63 346T107 426T175 477T262 495Q311 495 353 473T425 410V667H500V0H425ZM281 55Q326 55 365 77T425 132V350Q405 382 366 405T281 428Q244 428 215 414T166 375T136 316T125 241Q125 201 135 167T166 108T215 69T281 55Z"  />
<glyph unicode="e" horiz-adv-x="563" d="M294 -12Q240 -12 195 6T117 58T66 138T47 242Q47 294 65 340T114 421T189 475T285 495Q340 495 383 475T456 420T501 338T517 236V217H127Q129 183 142 153T177 100T230 64T300 50Q342 50 381 66T450 112L486 63Q449 27 401 8T294 -12ZM443 273Q443 300 434 328T405 379T355 418T284 433Q245 433 216 419T168 381T138 329T126 273H443Z"  />
<glyph unicode="f" horiz-adv-x="284" d="M96 0V417H16V483H96V520Q96 595 134 636T236 677Q281 677 310 661L291 604Q282 609 272 612T248 615Q171 615 171 520V483H269V417H171V0H96Z"  />
<glyph unicode="g" horiz-adv-x="575" d="M269 -196Q208 -196 163 -181T74 -123L112 -69Q142 -104 179 -119T269 -134Q299 -134 327 -127T377 -102T412 -58T425 7V80Q398 43 356 19T262 -6Q215 -6 176 11T108 60T63 139T47 244Q47 302 62 348T106 427T174 477T262 495Q311 495 353 473T425 410V483H500V7Q500 -50 481 -89T429 -152T355 -186T269 -196ZM281 61Q303 61 324 67T365 84T399 109T425 139V351Q415 366 400 380T365 404T325 421T281 428Q244 428 215 415T166 377T136 318T125 244Q125 204 135 171T166 113T215 75T281 61Z"  />
<glyph unicode="h" horiz-adv-x="552" d="M402 0V318Q402 350 394 371T372 405T338 423T293 428Q271 428 250 422T211 406T177 382T151 353V0H76V667H151V413Q163 428 181 443T222 469T270 488T323 495Q399 495 438 458T477 341V0H402Z"  />
<glyph unicode="i" horiz-adv-x="225" d="M113 552Q92 552 77 566T62 602Q62 623 77 638T113 653Q134 653 148 638T163 602Q163 581 149 567T113 552ZM75 0V483H150V0H75Z"  />
<glyph unicode="j" horiz-adv-x="225" d="M113 552Q92 552 77 566T62 602Q62 623 77 638T113 653Q134 653 148 638T163 602Q163 581 149 567T113 552ZM7 -196Q-30 -196 -52 -187T-98 -160L-72 -104Q-59 -117 -43 -125T-3 -134Q31 -134 53 -114T75 -47V483H150V-47Q150 -119 114 -157T7 -196Z"  />
<glyph unicode="k" horiz-adv-x="514" d="M404 0L231 217L150 138V0H75V667H150V226L404 483H499L285 264L500 0H404Z"  />
<glyph unicode="l" horiz-adv-x="269" d="M182 -12Q128 -12 102 17T75 101V667H150V117Q150 90 162 73T199 55Q215 55 228 61T249 76L272 19Q257 5 236 -3T182 -12Z"  />
<glyph unicode="m" horiz-adv-x="808" d="M658 0V328Q658 374 638 401T569 428Q550 428 532 422T496 406T465 382T441 354V0H366V328Q366 374 346 401T277 428Q240 428 205 405T150 353V0H75V483H150V413Q158 425 173 439T209 465T255 486T307 495Q362 495 393 469T436 405Q446 421 463 437T501 466T547 487T598 495Q664 495 698 459T733 349V0H658Z"  />
<glyph unicode="n" horiz-adv-x="552" d="M402 0V316Q402 380 372 404T293 428Q248 428 210 405T150 353V0H75V483H150V413Q163 428 181 443T221 469T270 488T323 495Q398 495 437 457T476 339V0H402Z"  />
<glyph unicode="o" horiz-adv-x="572" d="M286 -12Q231 -12 187 8T111 62T64 143T47 242Q47 294 63 340T111 421T186 475T286 495Q341 495 385 475T461 421T508 341T525 242Q525 189 509 143T461 63T386 8T286 -12ZM286 55Q325 55 354 70T404 111T435 171T446 242Q446 279 436 312T405 371T355 412T286 428Q247 428 218 413T168 372T137 313T126 242Q126 205 136 171T167 112T217 71T286 55Z"  />
<glyph unicode="p" horiz-adv-x="572" d="M313 -12Q263 -12 222 10T150 73V-184H75V483H150V411Q176 448 219 471T313 495Q361 495 400 478T468 428T512 348T528 242Q528 183 513 136T469 56T401 6T313 -12ZM294 55Q330 55 359 69T408 108T438 167T449 242Q449 282 439 316T408 375T359 414T294 428Q249 428 210 406T150 351V133Q170 101 209 78T294 55Z"  />
<glyph unicode="q" horiz-adv-x="572" d="M278 55Q323 55 362 78T422 133V351Q402 383 363 405T278 428Q242 428 213 414T164 375T134 316T123 242Q123 202 133 168T164 108T213 69T278 55ZM259 -12Q211 -12 172 5T104 56T60 136T44 242Q44 301 59 348T103 427T171 477T259 495Q310 495 353 472T422 411V483H497V-184H422V73Q392 33 351 11T259 -12Z"  />
<glyph unicode="r" horiz-adv-x="330" d="M75 0V483H150V406Q179 444 220 469T311 494V417Q304 418 297 418T282 419Q264 419 245 413T207 395T173 371T150 342V0H75Z"  />
<glyph unicode="s" horiz-adv-x="465" d="M229 -12Q107 -12 34 64L72 118Q96 90 138 70T231 49Q287 49 316 72T346 132Q346 161 324 176T269 202T197 220T125 244T69 285T47 356Q47 384 59 409T93 454T149 484T226 495Q289 495 332 475T405 425L370 373Q348 399 311 416T226 434Q176 434 148 412T119 358Q119 332 141 318T196 295T268 277T340 252T396 209T418 134Q418 104 406 77T370 31T311 0T229 -12Z"  />
<glyph unicode="t" horiz-adv-x="294" d="M198 -12Q144 -12 117 17T90 101V417H10V483H90V615H166V483H264V417H166V117Q166 90 178 73T214 55Q231 55 244 61T265 76L287 19Q273 5 252 -3T198 -12Z"  />
<glyph unicode="u" horiz-adv-x="551" d="M401 0V68Q373 36 328 12T229 -12Q75 -12 75 142V483H150V165Q150 133 157 112T179 78T214 60T259 55Q281 55 302 61T341 77T375 100T401 128V483H476V0H401Z"  />
<glyph unicode="v" horiz-adv-x="490" d="M204 0L3 483H85L245 87L406 483H487L286 0H204Z"  />
<glyph unicode="w" horiz-adv-x="734" d="M493 0L367 388L241 0H166L12 483H90L208 98L335 483H400L526 98L644 483H723L569 0H493Z"  />
<glyph unicode="x" horiz-adv-x="487" d="M389 0L243 198L98 0H12L197 248L22 483H109L243 299L378 483H464L289 248L475 0H389Z"  />
<glyph unicode="y" horiz-adv-x="551" d="M255 -196Q195 -196 151 -178T70 -123L108 -69Q135 -103 173 -118T255 -134Q324 -134 362 -97T401 6V78Q373 46 328 22T229 -2Q153 -2 114 35T75 152V483H150V175Q150 143 157 122T179 88T214 70T259 64Q303 64 341 86T401 137V483H476V6Q476 -45 458 -83T410 -146T340 -183T255 -196Z"  />
<glyph unicode="z" horiz-adv-x="472" d="M52 0V59L318 417H52V483H416V426L148 66H420V0H52Z"  />
<glyph unicode="{" horiz-adv-x="261" d="M182 -190Q158 -190 136 -181T97 -154T69 -112T58 -56V150Q58 178 45 198T5 219V269Q32 269 45 289T58 338V543Q58 574 68 599T96 641T136 668T182 678H244V623H182Q156 623 136 601T116 544V332Q116 300 106 278T71 244Q96 233 106 211T116 156V-55Q116 -90 136 -112T182 -135H244V-190H182Z"  />
<glyph unicode="|" horiz-adv-x="211" d="M78 -20V687H133V-20H78Z"  />
<glyph unicode="}" horiz-adv-x="261" d="M17 -135H78Q105 -135 125 -113T145 -55V156Q145 188 155 210T190 244Q165 255 155 277T145 332V544Q145 579 125 601T78 623H17V678H78Q102 678 124 669T164 642T192 599T203 543V338Q203 310 216 290T255 269V219Q229 219 216 199T203 150V-56Q203 -87 193 -111T165 -153T125 -180T78 -190H17V-135Z"  />
<glyph unicode="~" horiz-adv-x="503" d="M475 661Q471 616 463 573T440 497T400 443T338 423Q307 423 287 437T255 472T234 518T217 564T196 599T165 613Q147 613 133 599T110 560T94 499T83 422L27 429Q31 474 39 517T63 593T103 646T165 666Q196 666 216 652T248 617T269 571T286 525T306 489T338 475Q356 475 369 489T393 528T409 589T420 667L475 661Z"  />
<glyph unicode="&#xA0;" horiz-adv-x="259" />
<glyph unicode="&#xA1;" horiz-adv-x="230" d="M83 296H146L162 -184H68L83 296ZM60 438Q60 461 76 477T115 493Q138 493 153 477T169 438Q169 416 154 400T115 384Q92 384 76 400T60 438Z"  />
<glyph unicode="&#xA2;" horiz-adv-x="496" d="M252 -9Q205 -3 168 18T103 73T62 150T47 242Q47 291 61 333T103 409T167 464T252 492V565H311V494Q367 489 403 466T465 411L415 366Q394 395 368 409T311 427V56Q374 62 415 118L465 72Q439 39 403 17T311 -11V-100H252V-9ZM125 242Q125 172 158 123T252 59V424Q192 410 159 361T125 242Z"  />
<glyph unicode="&#xA3;" horiz-adv-x="518" d="M20 322H125Q111 338 98 354T73 389T55 430T48 480Q48 522 66 558T114 620T186 662T272 677Q341 677 393 648T474 565L407 525Q394 557 360 582T280 607Q251 607 226 598T181 573T150 533T138 479Q138 452 145 431T165 391T191 356T218 322H368V268H246Q249 258 251 248T253 225Q253 179 231 147T177 93Q188 97 201 99T229 102Q253 102 271 96T305 82T339 68T377 61Q410 61 436 74T472 101L508 34Q487 14 454 1T373 -13Q339 -13 318 -6T278 10T241 26T194 33Q168 33 138 22T76 -7L47 56Q111 84 145 123T179 208Q179 225 175 239T164 268H20V322Z"  />
<glyph unicode="&#xA4;" horiz-adv-x="506" d="M253 222Q310 222 341 262T372 365Q372 395 364 421T341 467T304 498T253 509Q224 509 202 498T165 468T141 422T133 365Q133 334 141 308T164 263T202 233T253 222ZM19 168L88 239Q50 294 50 365Q50 436 88 489L19 560L64 603L131 534Q155 552 185 563T253 574Q289 574 320 563T375 534L442 603L487 560L418 489Q455 435 455 365Q455 330 445 298T417 240L487 168L442 125L374 194Q325 157 253 157Q181 157 132 194L64 125L19 168Z"  />
<glyph unicode="&#xA5;" horiz-adv-x="626" d="M272 0V122H22V175H272V282H22V334H236L9 667H106L313 357L520 667H617L390 334H605V282H355V175H605V122H355V0H272Z"  />
<glyph unicode="&#xA6;" horiz-adv-x="211" d="M78 -20V296H133V-20H78ZM78 371V687H133V371H78Z"  />
<glyph unicode="&#xA7;" horiz-adv-x="468" d="M418 315Q418 273 395 241T326 188Q368 171 393 143T418 66Q418 31 404 4T365 -42T306 -71T229 -81Q192 -81 163 -75T110 -58T69 -33T34 -3L72 46Q95 19 135 -3T229 -25Q280 -25 313 -3T346 61Q346 92 324 108T269 135T197 155T125 179T69 220T47 291Q47 317 56 338T81 374T117 401T161 418Q109 435 78 463T47 542Q47 569 59 593T94 636T150 666T226 677Q294 677 337 656T405 606L370 561Q344 592 306 606T229 621Q180 621 150 600T119 541Q119 513 141 499T196 475T268 457T340 432T396 389T418 315ZM344 306Q344 327 334 342T308 367T272 385T231 397Q166 380 143 355T119 298Q119 276 131 262T163 237T208 221T261 207Q301 224 322 247T344 306Z"  />
<glyph unicode="&#xA8;" horiz-adv-x="272" d="M286 604Q286 585 273 572T239 558Q220 558 207 571T193 604Q193 624 206 637T239 650Q259 650 272 637T286 604ZM79 604Q79 585 66 572T33 558Q13 558 0 571T-14 604Q-14 624 -1 637T33 650Q52 650 65 637T79 604Z"  />
<glyph unicode="&#xA9;" horiz-adv-x="778" d="M734 334Q734 263 707 200T633 90T524 16T389 -11Q318 -11 255 16T145 90T71 200T44 334Q44 406 71 468T145 578T255 652T389 679Q461 679 523 652T633 578T707 469T734 334ZM703 334Q703 399 679 456T611 556T511 623T389 648Q324 648 267 624T168 556T100 456T75 334Q75 269 100 212T167 113T267 45T389 20Q454 20 511 45T611 112T678 212T703 334ZM538 187Q511 155 475 138T391 121Q348 121 310 137T244 183T200 251T183 336Q183 382 199 420T244 487T310 532T391 548Q438 548 474 531T537 483L512 458Q492 484 459 499T391 515Q357 515 326 502T272 466T234 409T220 335Q220 296 234 263T271 205T326 168T391 154Q427 154 459 170T512 212L538 187Z"  />
<glyph unicode="&#xAA;" horiz-adv-x="378" d="M261 326V361Q242 341 216 330T153 318Q132 318 112 325T77 345T51 377T41 422Q41 448 51 467T76 499T112 518T153 525Q189 525 215 514T261 483V538Q261 569 237 586T181 603Q155 603 129 592T83 557L57 595Q109 648 188 648Q214 648 237 642T279 623T307 589T318 537V326H261ZM175 356Q201 356 224 366T261 394V450Q247 468 224 478T175 488Q142 488 121 470T99 422Q99 392 120 374T175 356Z"  />
<glyph unicode="&#xAB;" horiz-adv-x="439" d="M334 63L174 243L334 420H409L249 243L409 63H334ZM190 63L30 243L190 420H265L105 243L265 63H190Z"  />
<glyph unicode="&#xAC;" horiz-adv-x="504" d="M470 211H415V404H29V457H470V211Z"  />
<glyph unicode="&#xAD;" horiz-adv-x="300" d="M30 209V275H270V209H30Z"  />
<glyph unicode="&#xAE;" horiz-adv-x="494" d="M459 465Q459 421 443 383T398 315T330 270T247 253Q203 253 165 269T97 315T52 382T35 465Q35 509 51 548T97 615T164 660T247 677Q291 677 330 661T397 616T442 548T459 465ZM430 465Q430 504 416 537T377 595T319 634T247 648Q209 648 176 634T118 595T79 537T64 465Q64 427 78 394T117 336T175 297T247 282Q285 282 318 296T376 336T415 394T430 465ZM305 343L242 439H198V343H166V586H265Q296 586 319 566T342 512Q342 492 335 478T317 456T296 444T280 440L345 343H305ZM309 512Q309 532 295 545T265 558H198V468H265Q281 468 295 480T309 512Z"  />
<glyph unicode="&#xAF;" horiz-adv-x="363" d="M0 591V639H363V591H0Z"  />
<glyph unicode="&#xB0;" horiz-adv-x="290" d="M267 555Q267 529 258 507T232 469T193 443T145 433Q119 433 97 442T59 468T33 507T23 555Q23 580 32 602T58 641T97 667T145 677Q170 677 192 668T231 642T257 603T267 555ZM219 555Q219 585 197 607T145 629Q114 629 93 607T72 555Q72 524 93 503T145 482Q175 482 197 503T219 555Z"  />
<glyph unicode="&#xB1;" horiz-adv-x="499" d="M278 324V111H221V324H29V376H221V583H278V376H470V324H278ZM29 0V53H470V0H29Z"  />
<glyph unicode="&#xB2;" horiz-adv-x="388" d="M50 421V466Q107 507 150 540T221 602T264 656T279 705Q279 724 272 738T253 761T226 774T194 778Q157 778 128 763T82 726L49 764Q74 796 114 811T196 827Q223 827 249 820T295 799T327 762T339 709Q339 679 324 650T283 592T219 532T138 470H341V421H50Z"  />
<glyph unicode="&#xB3;" horiz-adv-x="388" d="M343 530Q343 479 303 447T192 414Q138 414 100 433T42 479L75 517Q95 492 125 478T191 463Q234 463 258 482T283 533Q283 571 253 586T179 602Q166 602 155 602T139 601V651Q144 650 155 650T179 650Q221 650 249 664T277 714Q277 746 251 762T187 778Q123 778 78 730L47 765Q70 791 106 809T193 827Q256 827 296 799T336 720Q336 698 328 682T306 655T278 637T247 628Q261 626 278 620T309 601T333 572T343 530Z"  />
<glyph unicode="&#xB4;" horiz-adv-x="226" d="M57 556H0L148 700H226L57 556Z"  />
<glyph unicode="&#xB5;" horiz-adv-x="551" d="M75 -184V483H150V165Q150 101 179 77T259 53Q281 53 302 59T341 75T375 99T401 128V483H476V0H401V68Q373 36 328 12T229 -12Q183 -12 150 2V-184H75Z"  />
<glyph unicode="&#xB6;" horiz-adv-x="449" d="M333 -100V622H244V-100H199V323Q163 323 132 336T78 373T41 428T27 495Q27 531 40 562T77 616T132 653T199 667H378V-100H333Z"  />
<glyph unicode="&#xB7;" horiz-adv-x="231" d="M170 245Q170 222 154 206T115 190Q92 190 76 206T60 245Q60 267 76 283T115 299Q138 299 154 283T170 245Z"  />
<glyph unicode="&#xB8;" horiz-adv-x="205" d="M101 -191Q69 -191 42 -182T0 -161L19 -123Q38 -138 58 -145T99 -152Q124 -152 142 -141T160 -110Q160 -94 151 -85T123 -75Q112 -75 102 -79T85 -92L52 -73L83 11H128L102 -55Q110 -49 119 -47T139 -44Q168 -44 186 -62T205 -111Q205 -148 175 -169T101 -191Z"  />
<glyph unicode="&#xB9;" horiz-adv-x="235" d="M115 421V743L49 674L14 711L122 821H175V421H115Z"  />
<glyph unicode="&#xBA;" horiz-adv-x="405" d="M202 318Q165 318 135 331T84 366T52 419T40 483Q40 517 51 547T84 599T135 635T202 648Q240 648 270 635T321 600T353 547T365 483Q365 449 354 419T321 367T270 331T202 318ZM202 366Q252 366 279 400T306 483Q306 532 279 565T202 599Q153 599 127 566T100 483Q100 434 126 400T202 366Z"  />
<glyph unicode="&#xBB;" horiz-adv-x="439" d="M105 63H30L190 243L30 420H105L265 243L105 63ZM249 63H174L334 243L174 420H249L409 243L249 63Z"  />
<glyph unicode="&#xBC;" horiz-adv-x="770" d="M163 0H109L535 667H590L163 0ZM676 100V0H616V100H420V145L593 400H676V149H733V100H676ZM616 347L480 149H616V347ZM115 267V589L49 520L14 557L122 667H175V267H115Z"  />
<glyph unicode="&#xBD;" horiz-adv-x="807" d="M163 0H109L535 667H590L163 0ZM469 0V45Q526 86 569 119T640 181T683 235T698 284Q698 303 691 317T672 340T645 353T613 357Q576 357 547 342T501 305L468 343Q493 375 533 390T615 406Q642 406 668 399T714 378T746 341T758 288Q758 258 743 229T702 171T638 111T557 49H760V0H469ZM115 267V589L49 520L14 557L122 667H175V267H115Z"  />
<glyph unicode="&#xBE;" horiz-adv-x="878" d="M271 0H217L643 667H698L271 0ZM785 100V0H725V100H529V145L702 400H785V149H842V100H785ZM725 347L589 149H725V347ZM343 376Q343 325 303 293T192 260Q138 260 100 279T42 325L75 363Q95 338 125 324T191 309Q234 309 258 328T283 379Q283 417 253 432T179 448Q166 448 155 448T139 447V497Q144 496 155 496T179 496Q221 496 249 510T277 560Q277 592 251 608T187 624Q123 624 78 576L47 611Q70 637 106 655T193 673Q256 673 296 645T336 566Q336 544 328 528T306 501T278 483T247 474Q261 472 278 466T309 447T333 418T343 376Z"  />
<glyph unicode="&#xBF;" horiz-adv-x="394" d="M259 296Q279 279 288 258T297 214Q297 182 284 159T250 118T207 85T164 53T131 17T117 -29Q117 -67 146 -94T234 -122Q291 -122 328 -100T394 -41L444 -94Q408 -142 354 -169T227 -196Q181 -196 145 -184T84 -151T45 -102T31 -41Q31 -3 45 24T81 72T127 110T174 143T209 178T224 221Q224 233 218 246T198 269L259 296ZM238 493Q261 493 277 477T293 438Q293 415 277 399T238 383Q215 383 199 399T183 438Q183 461 199 477T238 493Z"  />
<glyph unicode="&#xC0;" horiz-adv-x="658" d="M339 728L170 872H248L396 728H339ZM554 0L495 149H163L104 0H9L278 667H381L649 0H554ZM329 582L188 222H471L329 582Z"  />
<glyph unicode="&#xC1;" horiz-adv-x="658" d="M321 728H264L412 872H490L321 728ZM554 0L495 149H163L104 0H9L278 667H381L649 0H554ZM329 582L188 222H471L329 582Z"  />
<glyph unicode="&#xC2;" horiz-adv-x="658" d="M412 728L329 834L249 728H198L293 872H365L463 728H412ZM554 0L495 149H163L104 0H9L278 667H381L649 0H554ZM329 582L188 222H471L329 582Z"  />
<glyph unicode="&#xC3;" horiz-adv-x="658" d="M389 726Q362 726 346 740T319 772T296 803T266 818Q246 818 232 798T218 732H173Q173 791 197 828T270 866Q297 866 313 852T340 820T363 789T393 774Q413 774 427 794T441 860H486Q486 801 462 764T389 726ZM554 0L495 149H163L104 0H9L278 667H381L649 0H554ZM329 582L188 222H471L329 582Z"  />
<glyph unicode="&#xC4;" horiz-adv-x="658" d="M480 773Q480 754 467 741T433 727Q414 727 401 740T387 773Q387 793 400 806T433 819Q453 819 466 806T480 773ZM273 773Q273 754 260 741T227 727Q207 727 194 740T180 773Q180 793 193 806T227 819Q246 819 259 806T273 773ZM554 0L495 149H163L104 0H9L278 667H381L649 0H554ZM329 582L188 222H471L329 582Z"  />
<glyph unicode="&#xC5;" horiz-adv-x="658" d="M330 692Q310 692 292 700T261 721T239 753T231 791Q231 811 239 829T260 860T292 882T330 890Q371 890 399 861T427 791Q427 750 399 721T330 692ZM330 732Q354 732 371 749T388 791Q388 815 371 832T330 850Q305 850 288 833T271 791Q271 767 288 750T330 732ZM554 0L495 149H163L104 0H9L278 667H381L649 0H554ZM329 582L188 222H471L329 582Z"  />
<glyph unicode="&#xC6;" horiz-adv-x="948" d="M456 0V149H194L102 0H7L423 667H893V593H539V378H886V304H539V74H893V0H456ZM456 582L234 222H456V582Z"  />
<glyph unicode="&#xC7;" horiz-adv-x="676" d="M388 -187Q356 -187 329 -178T287 -157L306 -119Q325 -134 345 -141T386 -148Q411 -148 429 -137T447 -106Q447 -90 438 -81T410 -71Q399 -71 389 -75T372 -88L339 -69L360 -10Q294 -4 238 23T140 95T75 200T51 333Q51 410 77 473T150 582T259 653T394 678Q483 678 545 641T647 546L578 507Q549 550 500 577T394 604Q339 604 292 584T211 529T157 443T137 333Q137 274 156 224T210 138T292 82T394 62Q451 62 500 89T578 159L648 121Q607 65 548 28T404 -12L389 -51Q397 -45 406 -43T426 -40Q455 -40 473 -58T492 -107Q492 -144 462 -165T388 -187Z"  />
<glyph unicode="&#xC8;" horiz-adv-x="569" d="M306 728L137 872H215L363 728H306ZM78 0V667H515V593H161V378H508V304H161V74H515V0H78Z"  />
<glyph unicode="&#xC9;" horiz-adv-x="569" d="M287 728H230L378 872H456L287 728ZM78 0V667H515V593H161V378H508V304H161V74H515V0H78Z"  />
<glyph unicode="&#xCA;" horiz-adv-x="569" d="M377 728L294 834L214 728H163L258 872H330L428 728H377ZM78 0V667H515V593H161V378H508V304H161V74H515V0H78Z"  />
<glyph unicode="&#xCB;" horiz-adv-x="569" d="M446 773Q446 754 433 741T399 727Q380 727 367 740T353 773Q353 793 366 806T399 819Q419 819 432 806T446 773ZM239 773Q239 754 226 741T193 727Q173 727 160 740T146 773Q146 793 159 806T193 819Q212 819 225 806T239 773ZM78 0V667H515V593H161V378H508V304H161V74H515V0H78Z"  />
<glyph unicode="&#xCC;" horiz-adv-x="239" d="M128 728L-41 872H37L185 728H128ZM78 0V667H161V0H78Z"  />
<glyph unicode="&#xCD;" horiz-adv-x="239" d="M112 728H55L203 872H281L112 728ZM78 0V667H161V0H78Z"  />
<glyph unicode="&#xCE;" horiz-adv-x="239" d="M201 728L118 834L38 728H-13L82 872H154L252 728H201ZM78 0V667H161V0H78Z"  />
<glyph unicode="&#xCF;" horiz-adv-x="239" d="M269 773Q269 754 256 741T222 727Q203 727 190 740T176 773Q176 793 189 806T222 819Q242 819 255 806T269 773ZM62 773Q62 754 49 741T16 727Q-4 727 -17 740T-31 773Q-31 793 -18 806T16 819Q35 819 48 806T62 773ZM78 0V667H161V0H78Z"  />
<glyph unicode="&#xD0;" horiz-adv-x="728" d="M106 0V299H10V360H106V667H334Q412 667 475 642T583 571T652 465T676 333Q676 262 652 201T583 96T475 26T334 0H106ZM189 299V74H334Q395 74 442 94T523 150T573 232T590 333Q590 387 573 434T524 517T444 572T334 593H189V360H358V299H189Z"  />
<glyph unicode="&#xD1;" horiz-adv-x="708" d="M412 726Q385 726 369 740T342 772T319 803T289 818Q269 818 255 798T241 732H196Q196 791 220 828T293 866Q320 866 336 852T363 820T386 789T416 774Q436 774 450 794T464 860H509Q509 801 485 764T412 726ZM550 0L161 532V0H78V667H163L547 146V667H630V0H550Z"  />
<glyph unicode="&#xD2;" horiz-adv-x="765" d="M395 728L226 872H304L452 728H395ZM382 -12Q308 -12 247 14T143 86T75 196T51 333Q51 407 75 470T142 579T247 652T382 678Q456 678 517 652T622 580T690 470T714 333Q714 259 690 196T622 87T517 14T382 -12ZM382 62Q438 62 483 82T561 139T610 225T628 333Q628 391 611 441T561 527T484 583T382 604Q326 604 281 584T203 527T154 441T137 333Q137 275 154 226T203 140T280 83T382 62Z"  />
<glyph unicode="&#xD3;" horiz-adv-x="765" d="M375 728H318L466 872H544L375 728ZM382 -12Q308 -12 247 14T143 86T75 196T51 333Q51 407 75 470T142 579T247 652T382 678Q456 678 517 652T622 580T690 470T714 333Q714 259 690 196T622 87T517 14T382 -12ZM382 62Q438 62 483 82T561 139T610 225T628 333Q628 391 611 441T561 527T484 583T382 604Q326 604 281 584T203 527T154 441T137 333Q137 275 154 226T203 140T280 83T382 62Z"  />
<glyph unicode="&#xD4;" horiz-adv-x="765" d="M466 728L383 834L303 728H252L347 872H419L517 728H466ZM382 -12Q308 -12 247 14T143 86T75 196T51 333Q51 407 75 470T142 579T247 652T382 678Q456 678 517 652T622 580T690 470T714 333Q714 259 690 196T622 87T517 14T382 -12ZM382 62Q438 62 483 82T561 139T610 225T628 333Q628 391 611 441T561 527T484 583T382 604Q326 604 281 584T203 527T154 441T137 333Q137 275 154 226T203 140T280 83T382 62Z"  />
<glyph unicode="&#xD5;" horiz-adv-x="765" d="M442 726Q415 726 399 740T372 772T349 803T319 818Q299 818 285 798T271 732H226Q226 791 250 828T323 866Q350 866 366 852T393 820T416 789T446 774Q466 774 480 794T494 860H539Q539 801 515 764T442 726ZM382 -12Q308 -12 247 14T143 86T75 196T51 333Q51 407 75 470T142 579T247 652T382 678Q456 678 517 652T622 580T690 470T714 333Q714 259 690 196T622 87T517 14T382 -12ZM382 62Q438 62 483 82T561 139T610 225T628 333Q628 391 611 441T561 527T484 583T382 604Q326 604 281 584T203 527T154 441T137 333Q137 275 154 226T203 140T280 83T382 62Z"  />
<glyph unicode="&#xD6;" horiz-adv-x="765" d="M532 773Q532 754 519 741T485 727Q466 727 453 740T439 773Q439 793 452 806T485 819Q505 819 518 806T532 773ZM325 773Q325 754 312 741T279 727Q259 727 246 740T232 773Q232 793 245 806T279 819Q298 819 311 806T325 773ZM382 -12Q308 -12 247 14T143 86T75 196T51 333Q51 407 75 470T142 579T247 652T382 678Q456 678 517 652T622 580T690 470T714 333Q714 259 690 196T622 87T517 14T382 -12ZM382 62Q438 62 483 82T561 139T610 225T628 333Q628 391 611 441T561 527T484 583T382 604Q326 604 281 584T203 527T154 441T137 333Q137 275 154 226T203 140T280 83T382 62Z"  />
<glyph unicode="&#xD7;" horiz-adv-x="499" d="M249 297L101 148L64 185L213 334L64 483L101 520L249 371L398 520L435 483L287 334L435 185L398 148L249 297Z"  />
<glyph unicode="&#xD8;" horiz-adv-x="765" d="M382 -12Q333 -12 290 -1T210 33L188 0H121L165 65Q111 112 81 180T51 333Q51 407 75 470T142 579T247 652T382 678Q430 678 471 667T549 636L570 667H637L595 604Q651 557 682 488T714 333Q714 259 690 196T622 87T517 14T382 -12ZM382 62Q438 62 483 82T561 139T610 225T628 333Q628 396 608 448T550 538L253 97Q308 62 382 62ZM137 333Q137 271 156 220T210 132L506 572Q480 587 449 595T382 604Q326 604 281 584T203 527T154 441T137 333Z"  />
<glyph unicode="&#xD9;" horiz-adv-x="701" d="M361 728L192 872H270L418 728H361ZM350 -12Q282 -12 232 7T147 62T95 147T78 259V667H162V261Q162 169 209 116T350 62Q443 62 491 115T539 261V667H623V260Q623 198 606 148T555 62T469 7T350 -12Z"  />
<glyph unicode="&#xDA;" horiz-adv-x="701" d="M341 728H284L432 872H510L341 728ZM350 -12Q282 -12 232 7T147 62T95 147T78 259V667H162V261Q162 169 209 116T350 62Q443 62 491 115T539 261V667H623V260Q623 198 606 148T555 62T469 7T350 -12Z"  />
<glyph unicode="&#xDB;" horiz-adv-x="701" d="M437 728L354 834L274 728H223L318 872H390L488 728H437ZM350 -12Q282 -12 232 7T147 62T95 147T78 259V667H162V261Q162 169 209 116T350 62Q443 62 491 115T539 261V667H623V260Q623 198 606 148T555 62T469 7T350 -12Z"  />
<glyph unicode="&#xDC;" horiz-adv-x="701" d="M501 773Q501 754 488 741T454 727Q435 727 422 740T408 773Q408 793 421 806T454 819Q474 819 487 806T501 773ZM294 773Q294 754 281 741T248 727Q228 727 215 740T201 773Q201 793 214 806T248 819Q267 819 280 806T294 773ZM350 -12Q282 -12 232 7T147 62T95 147T78 259V667H162V261Q162 169 209 116T350 62Q443 62 491 115T539 261V667H623V260Q623 198 606 148T555 62T469 7T350 -12Z"  />
<glyph unicode="&#xDD;" horiz-adv-x="626" d="M308 728H251L399 872H477L308 728ZM272 0V282L9 667H106L313 357L520 667H617L355 282V0H272Z"  />
<glyph unicode="&#xDE;" horiz-adv-x="587" d="M78 0V667H161V548H346Q396 548 435 532T500 488T541 424T555 346Q555 305 541 269T501 205T435 162T346 146H161V0H78ZM336 220Q396 220 432 254T469 346Q469 403 433 438T336 474H161V220H336Z"  />
<glyph unicode="&#xDF;" horiz-adv-x="597" d="M578 135Q578 106 567 79T532 32T474 0T392 -12Q356 -12 329 -6T279 11T240 36T206 66L244 118Q265 90 303 70T392 50Q450 50 477 75T505 133Q505 162 484 177T431 203T362 222T293 246T240 287T218 357Q218 384 229 404T256 439T291 466T326 490T353 514T364 543Q364 559 355 572T332 593T301 605T265 610Q241 610 221 603T185 581T160 546T151 499V0H76V499Q76 536 89 568T127 625T187 663T266 677Q300 677 332 669T388 644T426 604T441 551Q441 524 430 505T402 471T366 444T330 420T302 392T291 357Q291 331 312 318T365 295T434 278T503 253T556 210T578 135Z"  />
<glyph unicode="&#xE0;" horiz-adv-x="575" d="M304 556L135 700H213L361 556H304ZM425 0V72Q398 35 356 12T262 -12Q215 -12 176 5T108 55T63 135T47 241Q47 299 63 346T107 426T175 477T262 495Q311 495 353 473T425 410V483H500V0H425ZM281 55Q326 55 365 77T425 132V350Q405 382 366 405T281 428Q244 428 215 414T166 375T136 316T125 241Q125 201 135 167T166 108T215 69T281 55Z"  />
<glyph unicode="&#xE1;" horiz-adv-x="575" d="M285 556H228L376 700H454L285 556ZM425 0V72Q398 35 356 12T262 -12Q215 -12 176 5T108 55T63 135T47 241Q47 299 63 346T107 426T175 477T262 495Q311 495 353 473T425 410V483H500V0H425ZM281 55Q326 55 365 77T425 132V350Q405 382 366 405T281 428Q244 428 215 414T166 375T136 316T125 241Q125 201 135 167T166 108T215 69T281 55Z"  />
<glyph unicode="&#xE2;" horiz-adv-x="575" d="M375 556L292 662L212 556H161L256 700H328L426 556H375ZM425 0V72Q398 35 356 12T262 -12Q215 -12 176 5T108 55T63 135T47 241Q47 299 63 346T107 426T175 477T262 495Q311 495 353 473T425 410V483H500V0H425ZM281 55Q326 55 365 77T425 132V350Q405 382 366 405T281 428Q244 428 215 414T166 375T136 316T125 241Q125 201 135 167T166 108T215 69T281 55Z"  />
<glyph unicode="&#xE3;" horiz-adv-x="575" d="M353 554Q326 554 310 568T283 600T260 631T230 646Q210 646 196 626T182 560H137Q137 619 161 656T234 694Q261 694 277 680T304 648T327 617T357 602Q377 602 391 622T405 688H450Q450 629 426 592T353 554ZM425 0V72Q398 35 356 12T262 -12Q215 -12 176 5T108 55T63 135T47 241Q47 299 63 346T107 426T175 477T262 495Q311 495 353 473T425 410V483H500V0H425ZM281 55Q326 55 365 77T425 132V350Q405 382 366 405T281 428Q244 428 215 414T166 375T136 316T125 241Q125 201 135 167T166 108T215 69T281 55Z"  />
<glyph unicode="&#xE4;" horiz-adv-x="575" d="M443 604Q443 585 430 572T396 558Q377 558 364 571T350 604Q350 624 363 637T396 650Q416 650 429 637T443 604ZM236 604Q236 585 223 572T190 558Q170 558 157 571T143 604Q143 624 156 637T190 650Q209 650 222 637T236 604ZM425 0V72Q398 35 356 12T262 -12Q215 -12 176 5T108 55T63 135T47 241Q47 299 63 346T107 426T175 477T262 495Q311 495 353 473T425 410V483H500V0H425ZM281 55Q326 55 365 77T425 132V350Q405 382 366 405T281 428Q244 428 215 414T166 375T136 316T125 241Q125 201 135 167T166 108T215 69T281 55Z"  />
<glyph unicode="&#xE5;" horiz-adv-x="575" d="M291 554Q271 554 253 562T222 583T200 615T192 653Q192 673 200 691T221 722T253 744T291 752Q332 752 360 723T388 653Q388 612 360 583T291 554ZM291 594Q315 594 332 611T349 653Q349 677 332 694T291 712Q266 712 249 695T232 653Q232 629 249 612T291 594ZM425 0V72Q398 35 356 12T262 -12Q215 -12 176 5T108 55T63 135T47 241Q47 299 63 346T107 426T175 477T262 495Q311 495 353 473T425 410V483H500V0H425ZM281 55Q326 55 365 77T425 132V350Q405 382 366 405T281 428Q244 428 215 414T166 375T136 316T125 241Q125 201 135 167T166 108T215 69T281 55Z"  />
<glyph unicode="&#xE6;" horiz-adv-x="936" d="M425 0V72Q398 35 356 12T262 -12Q215 -12 176 5T108 55T63 135T47 241Q47 299 63 346T107 426T175 477T262 495Q311 495 353 473T425 410V483H500V389Q526 437 570 466T676 495Q727 495 767 475T834 420T876 338T891 236V217H500Q502 183 515 153T550 101T603 65T673 52Q715 52 754 67T823 113L859 63Q827 29 783 9T684 -12Q621 -12 574 15T500 93V0H425ZM281 55Q326 55 365 77T425 132V350Q405 382 366 405T281 428Q244 428 215 414T166 375T136 316T125 241Q125 201 135 167T166 108T215 69T281 55ZM817 273Q817 300 808 328T779 379T729 418T658 433Q619 433 590 419T542 381T512 329T500 273H817Z"  />
<glyph unicode="&#xE7;" horiz-adv-x="496" d="M290 -189Q258 -189 231 -180T189 -159L208 -121Q227 -136 247 -143T288 -150Q313 -150 331 -139T349 -108Q349 -92 340 -83T312 -73Q301 -73 291 -77T274 -90L241 -71L263 -10Q214 -6 175 15T107 69T63 147T47 242Q47 296 64 342T113 422T189 475T288 495Q354 495 395 471T465 411L415 366Q391 399 361 413T292 428Q254 428 223 414T170 375T137 316T125 242Q125 202 136 168T170 108T223 69T292 55Q368 55 415 118L465 72Q439 38 402 16T307 -11L291 -53Q299 -47 308 -45T328 -42Q357 -42 375 -60T394 -109Q394 -146 364 -167T290 -189Z"  />
<glyph unicode="&#xE8;" horiz-adv-x="563" d="M294 -12Q240 -12 195 6T117 58T66 138T47 242Q47 294 65 340T114 421T189 475T285 495Q340 495 383 475T456 420T501 338T517 236V217H127Q129 183 142 153T177 100T230 64T300 50Q342 50 381 66T450 112L486 63Q449 27 401 8T294 -12ZM443 273Q443 300 434 328T405 379T355 418T284 433Q245 433 216 419T168 381T138 329T126 273H443ZM295 556L126 700H204L352 556H295Z"  />
<glyph unicode="&#xE9;" horiz-adv-x="563" d="M294 -12Q240 -12 195 6T117 58T66 138T47 242Q47 294 65 340T114 421T189 475T285 495Q340 495 383 475T456 420T501 338T517 236V217H127Q129 183 142 153T177 100T230 64T300 50Q342 50 381 66T450 112L486 63Q449 27 401 8T294 -12ZM443 273Q443 300 434 328T405 379T355 418T284 433Q245 433 216 419T168 381T138 329T126 273H443ZM277 556H220L368 700H446L277 556Z"  />
<glyph unicode="&#xEA;" horiz-adv-x="563" d="M294 -12Q240 -12 195 6T117 58T66 138T47 242Q47 294 65 340T114 421T189 475T285 495Q340 495 383 475T456 420T501 338T517 236V217H127Q129 183 142 153T177 100T230 64T300 50Q342 50 381 66T450 112L486 63Q449 27 401 8T294 -12ZM443 273Q443 300 434 328T405 379T355 418T284 433Q245 433 216 419T168 381T138 329T126 273H443ZM368 556L285 662L205 556H154L249 700H321L419 556H368Z"  />
<glyph unicode="&#xEB;" horiz-adv-x="563" d="M294 -12Q240 -12 195 6T117 58T66 138T47 242Q47 294 65 340T114 421T189 475T285 495Q340 495 383 475T456 420T501 338T517 236V217H127Q129 183 142 153T177 100T230 64T300 50Q342 50 381 66T450 112L486 63Q449 27 401 8T294 -12ZM443 273Q443 300 434 328T405 379T355 418T284 433Q245 433 216 419T168 381T138 329T126 273H443ZM436 604Q436 585 423 572T389 558Q370 558 357 571T343 604Q343 624 356 637T389 650Q409 650 422 637T436 604ZM229 604Q229 585 216 572T183 558Q163 558 150 571T136 604Q136 624 149 637T183 650Q202 650 215 637T229 604Z"  />
<glyph unicode="&#xEC;" horiz-adv-x="225" d="M121 556L-48 700H30L178 556H121ZM75 0V483H150V0H75Z"  />
<glyph unicode="&#xED;" horiz-adv-x="225" d="M104 556H47L195 700H273L104 556ZM75 0V483H150V0H75Z"  />
<glyph unicode="&#xEE;" horiz-adv-x="225" d="M195 556L112 662L32 556H-19L76 700H148L246 556H195ZM75 0V483H150V0H75Z"  />
<glyph unicode="&#xEF;" horiz-adv-x="225" d="M263 604Q263 585 250 572T216 558Q197 558 184 571T170 604Q170 624 183 637T216 650Q236 650 249 637T263 604ZM56 604Q56 585 43 572T10 558Q-10 558 -23 571T-37 604Q-37 624 -24 637T10 650Q29 650 42 637T56 604ZM75 0V483H150V0H75Z"  />
<glyph unicode="&#xF0;" horiz-adv-x="572" d="M104 539L222 591Q204 603 185 615T147 639L188 701Q217 683 245 664T300 625L408 673L425 632L339 594Q379 559 413 521T472 439T511 348T525 247Q525 191 509 144T461 62T386 8T286 -12Q232 -12 188 6T113 58T64 136T47 234Q47 286 63 331T108 409T178 460T267 479Q314 479 353 459T425 391Q397 441 357 482T265 561L122 497L104 539ZM286 55Q325 55 354 69T404 109T435 166T446 234Q446 269 436 301T405 358T355 397T286 412Q247 412 218 398T168 359T137 302T126 234Q126 198 136 166T167 109T217 70T286 55Z"  />
<glyph unicode="&#xF1;" horiz-adv-x="552" d="M405 0V316Q405 380 375 404T296 428Q251 428 213 405T153 353V0H78V483H153V413Q166 428 184 443T224 469T273 488T326 495Q401 495 440 457T479 339V0H405ZM336 554Q309 554 293 568T266 600T243 631T213 646Q193 646 179 626T165 560H120Q120 619 144 656T217 694Q244 694 260 680T287 648T310 617T340 602Q360 602 374 622T388 688H433Q433 629 409 592T336 554Z"  />
<glyph unicode="&#xF2;" horiz-adv-x="572" d="M286 -12Q231 -12 187 8T111 62T64 143T47 242Q47 294 63 340T111 421T186 475T286 495Q341 495 385 475T461 421T508 341T525 242Q525 189 509 143T461 63T386 8T286 -12ZM286 55Q325 55 354 70T404 111T435 171T446 242Q446 279 436 312T405 371T355 412T286 428Q247 428 218 413T168 372T137 313T126 242Q126 205 136 171T167 112T217 71T286 55ZM295 556L126 700H204L352 556H295Z"  />
<glyph unicode="&#xF3;" horiz-adv-x="572" d="M286 -12Q231 -12 187 8T111 62T64 143T47 242Q47 294 63 340T111 421T186 475T286 495Q341 495 385 475T461 421T508 341T525 242Q525 189 509 143T461 63T386 8T286 -12ZM286 55Q325 55 354 70T404 111T435 171T446 242Q446 279 436 312T405 371T355 412T286 428Q247 428 218 413T168 372T137 313T126 242Q126 205 136 171T167 112T217 71T286 55ZM277 556H220L368 700H446L277 556Z"  />
<glyph unicode="&#xF4;" horiz-adv-x="572" d="M286 -12Q231 -12 187 8T111 62T64 143T47 242Q47 294 63 340T111 421T186 475T286 495Q341 495 385 475T461 421T508 341T525 242Q525 189 509 143T461 63T386 8T286 -12ZM286 55Q325 55 354 70T404 111T435 171T446 242Q446 279 436 312T405 371T355 412T286 428Q247 428 218 413T168 372T137 313T126 242Q126 205 136 171T167 112T217 71T286 55ZM369 556L286 662L206 556H155L250 700H322L420 556H369Z"  />
<glyph unicode="&#xF5;" horiz-adv-x="572" d="M286 -12Q231 -12 187 8T111 62T64 143T47 242Q47 294 63 340T111 421T186 475T286 495Q341 495 385 475T461 421T508 341T525 242Q525 189 509 143T461 63T386 8T286 -12ZM286 55Q325 55 354 70T404 111T435 171T446 242Q446 279 436 312T405 371T355 412T286 428Q247 428 218 413T168 372T137 313T126 242Q126 205 136 171T167 112T217 71T286 55ZM346 554Q319 554 303 568T276 600T253 631T223 646Q203 646 189 626T175 560H130Q130 619 154 656T227 694Q254 694 270 680T297 648T320 617T350 602Q370 602 384 622T398 688H443Q443 629 419 592T346 554Z"  />
<glyph unicode="&#xF6;" horiz-adv-x="572" d="M286 -12Q231 -12 187 8T111 62T64 143T47 242Q47 294 63 340T111 421T186 475T286 495Q341 495 385 475T461 421T508 341T525 242Q525 189 509 143T461 63T386 8T286 -12ZM286 55Q325 55 354 70T404 111T435 171T446 242Q446 279 436 312T405 371T355 412T286 428Q247 428 218 413T168 372T137 313T126 242Q126 205 136 171T167 112T217 71T286 55ZM436 604Q436 585 423 572T389 558Q370 558 357 571T343 604Q343 624 356 637T389 650Q409 650 422 637T436 604ZM229 604Q229 585 216 572T183 558Q163 558 150 571T136 604Q136 624 149 637T183 650Q202 650 215 637T229 604Z"  />
<glyph unicode="&#xF7;" horiz-adv-x="511" d="M302 527Q302 507 289 494T256 480Q237 480 224 493T210 527Q210 546 223 559T256 572Q275 572 288 559T302 527ZM29 311V363H482V311H29ZM302 144Q302 125 289 112T256 98Q237 98 224 111T210 144Q210 163 223 176T256 190Q275 190 288 177T302 144Z"  />
<glyph unicode="&#xF8;" horiz-adv-x="572" d="M64 0L112 61Q80 96 64 142T47 242Q47 294 63 340T111 421T186 475T286 495Q326 495 360 485T423 454L446 483H501L456 426Q489 391 507 344T525 242Q525 189 509 143T461 63T386 8T286 -12Q203 -12 144 33L118 0H64ZM286 55Q325 55 354 70T404 111T435 171T446 242Q446 277 437 309T408 366L188 89Q228 55 286 55ZM126 242Q126 208 134 177T160 121L378 398Q340 428 286 428Q247 428 218 413T168 372T137 313T126 242Z"  />
<glyph unicode="&#xF9;" horiz-adv-x="551" d="M401 0V68Q373 36 328 12T229 -12Q75 -12 75 142V483H150V165Q150 133 157 112T179 78T214 60T259 55Q281 55 302 61T341 77T375 100T401 128V483H476V0H401ZM287 556L118 700H196L344 556H287Z"  />
<glyph unicode="&#xFA;" horiz-adv-x="551" d="M401 0V68Q373 36 328 12T229 -12Q75 -12 75 142V483H150V165Q150 133 157 112T179 78T214 60T259 55Q281 55 302 61T341 77T375 100T401 128V483H476V0H401ZM268 556H211L359 700H437L268 556Z"  />
<glyph unicode="&#xFB;" horiz-adv-x="551" d="M401 0V68Q373 36 328 12T229 -12Q75 -12 75 142V483H150V165Q150 133 157 112T179 78T214 60T259 55Q281 55 302 61T341 77T375 100T401 128V483H476V0H401ZM358 556L275 662L195 556H144L239 700H311L409 556H358Z"  />
<glyph unicode="&#xFC;" horiz-adv-x="551" d="M401 0V68Q373 36 328 12T229 -12Q75 -12 75 142V483H150V165Q150 133 157 112T179 78T214 60T259 55Q281 55 302 61T341 77T375 100T401 128V483H476V0H401ZM429 604Q429 585 416 572T382 558Q363 558 350 571T336 604Q336 624 349 637T382 650Q402 650 415 637T429 604ZM222 604Q222 585 209 572T176 558Q156 558 143 571T129 604Q129 624 142 637T176 650Q195 650 208 637T222 604Z"  />
<glyph unicode="&#xFD;" horiz-adv-x="551" d="M266 556H209L357 700H435L266 556ZM255 -196Q195 -196 151 -178T70 -123L108 -69Q135 -103 173 -118T255 -134Q324 -134 362 -97T401 6V78Q373 46 328 22T229 -2Q153 -2 114 35T75 152V483H150V175Q150 143 157 122T179 88T214 70T259 64Q303 64 341 86T401 137V483H476V6Q476 -45 458 -83T410 -146T340 -183T255 -196Z"  />
<glyph unicode="&#xFE;" horiz-adv-x="572" d="M313 -12Q263 -12 222 10T150 73V-184H75V667H150V411Q176 448 219 471T313 495Q361 495 400 478T468 428T512 348T528 242Q528 183 513 136T469 56T401 6T313 -12ZM294 55Q330 55 359 69T408 108T438 167T449 242Q449 282 439 316T408 375T359 414T294 428Q249 428 210 406T150 351V133Q170 101 209 78T294 55Z"  />
<glyph unicode="&#xFF;" horiz-adv-x="551" d="M422 604Q422 585 409 572T375 558Q356 558 343 571T329 604Q329 624 342 637T375 650Q395 650 408 637T422 604ZM215 604Q215 585 202 572T169 558Q149 558 136 571T122 604Q122 624 135 637T169 650Q188 650 201 637T215 604ZM255 -196Q195 -196 151 -178T70 -123L108 -69Q135 -103 173 -118T255 -134Q324 -134 362 -97T401 6V78Q373 46 328 22T229 -2Q153 -2 114 35T75 152V483H150V175Q150 143 157 122T179 88T214 70T259 64Q303 64 341 86T401 137V483H476V6Q476 -45 458 -83T410 -146T340 -183T255 -196Z"  />
<glyph unicode="&#x152;" horiz-adv-x="1105" d="M614 0V121Q576 55 511 22T375 -12Q302 -12 243 14T141 86T75 196T51 333Q51 407 74 470T140 579T242 651T375 677Q446 677 511 645T614 546V667H1051V593H697V378H1044V304H697V74H1051V0H614ZM614 443Q584 524 523 563T385 603Q328 603 282 583T204 526T154 441T137 333Q137 275 154 226T203 140T282 83T385 62Q462 62 523 102T614 224V443Z"  />
<glyph unicode="&#x153;" horiz-adv-x="962" d="M526 217Q528 183 541 153T576 100T629 64T699 50Q741 50 780 66T849 112L885 63Q848 27 800 8T693 -12Q646 -12 612 1T552 36T511 81T485 126Q476 106 461 82T422 37T365 2T286 -12Q231 -12 187 8T111 62T64 143T47 242Q47 294 63 340T111 421T186 475T286 495Q331 495 365 481T423 445T462 400T486 357Q494 377 510 401T550 446T607 481T684 495Q739 495 782 475T855 420T900 338T916 236V217H526ZM843 273Q842 300 833 328T804 379T755 418T684 433Q645 433 616 419T567 381T537 329T525 273H843ZM446 242Q446 280 435 313T404 372T354 413T286 428Q248 428 219 413T169 373T137 314T126 242Q126 204 137 170T168 110T218 69T286 54Q324 54 353 69T403 109T435 169T446 242Z"  />
<glyph unicode="&#x160;" horiz-adv-x="586" d="M251 728L153 872H204L287 766L367 872H418L323 728H251ZM294 -12Q207 -12 144 17T38 94L88 158Q104 139 125 122T173 92T231 70T297 62Q342 62 372 73T420 100T446 137T454 178Q454 210 437 231T393 266T330 290T257 310T184 333T121 366T76 417T59 492Q59 533 76 567T124 626T197 664T289 678Q365 678 424 654T525 584L475 523Q437 565 387 584T282 603Q222 603 184 574T145 497Q145 469 162 451T206 420T269 398T342 378T415 353T478 317T523 263T540 184Q540 148 527 113T485 50T408 5T294 -12Z"  />
<glyph unicode="&#x161;" horiz-adv-x="465" d="M229 -12Q107 -12 34 64L72 118Q96 90 138 70T231 49Q287 49 316 72T346 132Q346 161 324 176T269 202T197 220T125 244T69 285T47 356Q47 384 59 409T93 454T149 484T226 495Q289 495 332 475T405 425L370 373Q348 399 311 416T226 434Q176 434 148 412T119 358Q119 332 141 318T196 295T268 277T340 252T396 209T418 134Q418 104 406 77T370 31T311 0T229 -12ZM194 556L96 700H147L230 594L310 700H361L266 556H194Z"  />
<glyph unicode="&#x178;" horiz-adv-x="626" d="M466 773Q466 754 453 741T419 727Q400 727 387 740T373 773Q373 793 386 806T419 819Q439 819 452 806T466 773ZM259 773Q259 754 246 741T213 727Q193 727 180 740T166 773Q166 793 179 806T213 819Q232 819 245 806T259 773ZM272 0V282L9 667H106L313 357L520 667H617L355 282V0H272Z"  />
<glyph unicode="&#x17D;" horiz-adv-x="585" d="M258 728L160 872H211L294 766L374 872H425L330 728H258ZM48 0V69L423 593H48V667H530V598L154 74H537V0H48Z"  />
<glyph unicode="&#x17E;" horiz-adv-x="472" d="M52 0V59L318 417H52V483H416V426L148 66H420V0H52ZM195 556L97 700H148L231 594L311 700H362L267 556H195Z"  />
<glyph unicode="&#x192;" horiz-adv-x="432" d="M25 -161L117 254H49V322H131L177 526Q192 596 239 636T351 677Q380 677 403 669T445 641L408 580Q391 603 359 603Q322 603 295 579T258 511L216 322H355V254H202L109 -161H25Z"  />
<glyph unicode="&#x2C6;" horiz-adv-x="265" d="M214 556L131 662L51 556H0L95 700H167L265 556H214Z"  />
<glyph unicode="&#x2DC;" horiz-adv-x="313" d="M216 554Q189 554 173 568T146 600T123 631T93 646Q73 646 59 626T45 560H0Q0 619 24 656T97 694Q124 694 140 680T167 648T190 617T220 602Q240 602 254 622T268 688H313Q313 629 289 592T216 554Z"  />
<glyph unicode="&#x2013;" horiz-adv-x="593" d="M30 209V275H563V209H30Z"  />
<glyph unicode="&#x2014;" horiz-adv-x="833" d="M30 209V275H803V209H30Z"  />
<glyph unicode="&#x2018;" horiz-adv-x="230" d="M48 527Q48 573 71 613T128 677L166 647Q142 631 123 605T101 554Q103 554 107 555T115 556Q135 556 149 542T163 505Q163 482 148 467T110 451Q85 451 67 470T48 527Z"  />
<glyph unicode="&#x2019;" horiz-adv-x="230" d="M176 601Q176 555 153 515T95 450L57 481Q81 497 100 523T122 574Q118 572 108 572Q88 572 74 586T60 623Q60 645 75 661T113 677Q139 677 157 658T176 601Z"  />
<glyph unicode="&#x201A;" horiz-adv-x="230" d="M176 24Q176 -22 153 -62T95 -127L57 -96Q81 -80 100 -54T122 -3Q118 -5 108 -5Q88 -5 74 9T60 46Q60 68 75 84T113 100Q139 100 157 80T176 24Z"  />
<glyph unicode="&#x201C;" horiz-adv-x="390" d="M54 527Q54 573 77 613T135 677L172 647Q148 631 130 605T108 554Q109 554 113 555T121 556Q142 556 156 542T170 505Q170 482 155 467T116 451Q91 451 73 470T54 527ZM214 527Q214 573 237 613T295 677L332 647Q308 631 290 605T268 554Q270 554 274 555T281 556Q302 556 316 542T330 505Q330 482 315 467T276 451Q251 451 233 470T214 527Z"  />
<glyph unicode="&#x201D;" horiz-adv-x="390" d="M336 601Q336 555 313 515T255 450L218 481Q242 497 260 523T282 574Q281 573 277 573T269 572Q248 572 234 586T220 623Q220 645 235 661T274 677Q299 677 317 658T336 601ZM176 601Q176 555 153 515T95 450L57 481Q81 497 100 523T122 574Q118 572 108 572Q88 572 74 586T60 623Q60 645 75 661T113 677Q139 677 157 658T176 601Z"  />
<glyph unicode="&#x201E;" horiz-adv-x="390" d="M176 24Q176 -22 153 -62T95 -127L57 -96Q81 -80 100 -54T122 -3Q118 -5 108 -5Q88 -5 74 9T60 46Q60 68 75 84T113 100Q139 100 157 80T176 24ZM336 24Q336 -22 313 -62T255 -127L218 -96Q242 -80 260 -54T282 -3Q281 -4 277 -4T269 -5Q248 -5 234 9T220 46Q220 68 235 84T274 100Q299 100 317 80T336 24Z"  />
<glyph unicode="&#x2020;" horiz-adv-x="263" d="M151 535L155 327H107L112 535L23 531V574L112 571L107 677H155L151 571L240 574V531L151 535Z"  />
<glyph unicode="&#x2021;" horiz-adv-x="263" d="M240 531L151 535V322L240 326V283L151 286L155 180H107L111 286L23 283V326L111 322V535L23 531V574L111 571L107 677H155L151 571L240 574V531Z"  />
<glyph unicode="&#x2022;" horiz-adv-x="358" d="M288 242Q288 220 280 201T256 167T222 144T180 135Q158 135 139 143T104 166T81 200T72 242Q72 264 80 283T104 318T138 341T180 350Q202 350 221 342T256 318T279 284T288 242Z"  />
<glyph unicode="&#x2026;" horiz-adv-x="691" d="M170 45Q170 23 154 7T115 -10Q92 -10 76 6T60 45Q60 68 76 84T115 100Q138 100 154 84T170 45ZM400 45Q400 23 384 7T345 -10Q322 -10 306 6T290 45Q290 68 306 84T345 100Q368 100 384 84T400 45ZM630 45Q630 23 615 7T576 -10Q553 -10 537 6T521 45Q521 68 537 84T576 100Q599 100 614 84T630 45Z"  />
<glyph unicode="&#x2030;" horiz-adv-x="1084" d="M353 511Q353 476 342 447T309 395T258 361T192 348Q156 348 127 360T76 395T43 446T31 511Q31 547 43 577T76 629T126 664T192 677Q228 677 257 665T308 630T341 577T353 511ZM183 0H128L554 667H610L183 0ZM700 152Q700 117 689 87T656 35T606 1T540 -12Q504 -12 475 0T424 35T391 87T379 152Q379 187 391 217T424 269T474 304T540 317Q576 317 605 305T656 270T688 217T700 152ZM293 511Q293 563 265 596T192 630Q147 630 119 597T91 511Q91 462 119 429T192 395Q237 395 265 428T293 511ZM641 152Q641 177 634 198T613 236T581 261T540 270Q494 270 466 237T438 152Q438 102 466 69T540 35Q562 35 581 44T613 68T633 105T641 152ZM1053 152Q1053 117 1041 87T1008 35T958 1T892 -12Q856 -12 827 0T776 35T743 87T731 152Q731 187 743 217T776 269T826 304T892 317Q928 317 957 305T1008 270T1041 217T1053 152ZM993 152Q993 177 986 198T965 236T933 261T892 270Q869 270 851 261T819 236T799 199T791 152Q791 127 798 106T819 69T850 44T892 35Q914 35 933 44T965 68T985 105T993 152Z"  />
<glyph unicode="&#x2039;" horiz-adv-x="295" d="M190 63L30 243L190 420H265L105 243L265 63H190Z"  />
<glyph unicode="&#x203A;" horiz-adv-x="295" d="M105 63H30L190 243L30 420H105L265 243L105 63Z"  />
<glyph unicode="&#x20AC;" horiz-adv-x="695" d="M416 -12Q356 -12 302 5T205 55T131 134T85 237H31V289H75Q74 300 74 311T73 333Q73 344 73 356T75 379H31V432H86Q101 488 132 533T206 611T303 660T416 678Q505 678 567 641T669 546L600 507Q571 550 522 577T416 604Q330 604 266 558T174 432H476V379H162Q159 356 159 333Q159 310 162 289H476V237H174Q187 197 210 165T265 110T335 75T416 62Q473 62 522 89T600 159L670 121Q628 63 567 26T416 -12Z"  />
<glyph unicode="&#x2122;" horiz-adv-x="454" d="M391 447V629L316 447H308L233 629V447H205V667H248L312 507L376 667H419V447H391ZM107 641V447H79V641H17V667H169V641H107Z"  />


</font>
</defs>
</svg>
